REM DIRINDEX 1\2\4,1\2\5,1\2\6,1\3\7,1\3\8,1\3\9,1\3\10
REM DIRNAME cjc057,folder01,folder02,folder03,folder04,folder05,folder06,folder07,folder08,folder09
TITLE ""
FILE "b_137.mp3" MP3
  TRACK 01 AUDIO
    TITLE "0:"
    INDEX 01 00:00:00
  TRACK 02 AUDIO
    TITLE "7:cjc057_08505"
    INDEX 01 00:00:15
  TRACK 03 AUDIO
    TITLE "0:"
    INDEX 01 00:01:38
  TRACK 04 AUDIO
    TITLE "8:cjc057_08506"
    INDEX 01 00:01:68
  TRACK 05 AUDIO
    TITLE "0:"
    INDEX 01 00:04:38
  TRACK 06 AUDIO
    TITLE "7:cjc057_08507"
    INDEX 01 00:05:42
  TRACK 07 AUDIO
    TITLE "0:"
    INDEX 01 00:06:61
  TRACK 08 AUDIO
    TITLE "8:cjc057_08508"
    INDEX 01 00:07:15
  TRACK 09 AUDIO
    TITLE "0:"
    INDEX 01 00:10:27
  TRACK 10 AUDIO
    TITLE "7:cjc057_08509"
    INDEX 01 00:11:29
  TRACK 11 AUDIO
    TITLE "0:"
    INDEX 01 00:12:60
  TRACK 12 AUDIO
    TITLE "8:cjc057_08510"
    INDEX 01 00:13:14
  TRACK 13 AUDIO
    TITLE "0:"
    INDEX 01 00:14:09
  TRACK 14 AUDIO
    TITLE "7:cjc057_08511"
    INDEX 01 00:15:13
  TRACK 15 AUDIO
    TITLE "0:"
    INDEX 01 00:16:20
  TRACK 16 AUDIO
    TITLE "8:cjc057_08512"
    INDEX 01 00:16:49
  TRACK 17 AUDIO
    TITLE "0:"
    INDEX 01 00:18:01
  TRACK 18 AUDIO
    TITLE "7:cjc057_08513"
    INDEX 01 00:19:05
  TRACK 19 AUDIO
    TITLE "0:"
    INDEX 01 00:20:37
  TRACK 20 AUDIO
    TITLE "8:cjc057_08514"
    INDEX 01 00:20:67
  TRACK 21 AUDIO
    TITLE "0:"
    INDEX 01 00:23:24
  TRACK 22 AUDIO
    TITLE "7:cjc057_08515"
    INDEX 01 00:24:29
  TRACK 23 AUDIO
    TITLE "0:"
    INDEX 01 00:25:37
  TRACK 24 AUDIO
    TITLE "8:cjc057_08516"
    INDEX 01 00:25:68
  TRACK 25 AUDIO
    TITLE "0:"
    INDEX 01 00:28:45
  TRACK 26 AUDIO
    TITLE "7:cjc057_08517"
    INDEX 01 00:29:46
  TRACK 27 AUDIO
    TITLE "0:"
    INDEX 01 00:31:12
  TRACK 28 AUDIO
    TITLE "8:cjc057_08518"
    INDEX 01 00:31:43
  TRACK 29 AUDIO
    TITLE "0:"
    INDEX 01 00:34:00
  TRACK 30 AUDIO
    TITLE "7:cjc057_08519"
    INDEX 01 00:35:06
  TRACK 31 AUDIO
    TITLE "0:"
    INDEX 01 00:36:31
  TRACK 32 AUDIO
    TITLE "8:cjc057_08520"
    INDEX 01 00:36:62
  TRACK 33 AUDIO
    TITLE "0:"
    INDEX 01 00:39:09
  TRACK 34 AUDIO
    TITLE "7:cjc057_08521"
    INDEX 01 00:40:13
  TRACK 35 AUDIO
    TITLE "0:"
    INDEX 01 00:41:26
  TRACK 36 AUDIO
    TITLE "8:cjc057_08522"
    INDEX 01 00:41:55
  TRACK 37 AUDIO
    TITLE "0:"
    INDEX 01 00:42:74
  TRACK 38 AUDIO
    TITLE "7:cjc057_08523"
    INDEX 01 00:44:03
  TRACK 39 AUDIO
    TITLE "0:"
    INDEX 01 00:45:35
  TRACK 40 AUDIO
    TITLE "8:cjc057_08524"
    INDEX 01 00:45:65
  TRACK 41 AUDIO
    TITLE "0:"
    INDEX 01 00:47:68
  TRACK 42 AUDIO
    TITLE "7:cjc057_08525"
    INDEX 01 00:48:73
  TRACK 43 AUDIO
    TITLE "0:"
    INDEX 01 00:50:23
  TRACK 44 AUDIO
    TITLE "8:cjc057_08526"
    INDEX 01 00:50:52
  TRACK 45 AUDIO
    TITLE "0:"
    INDEX 01 00:52:00
  TRACK 46 AUDIO
    TITLE "7:cjc057_08527"
    INDEX 01 00:53:04
  TRACK 47 AUDIO
    TITLE "0:"
    INDEX 01 00:54:23
  TRACK 48 AUDIO
    TITLE "8:cjc057_08528"
    INDEX 01 00:54:52
  TRACK 49 AUDIO
    TITLE "0:"
    INDEX 01 00:55:69
  TRACK 50 AUDIO
    TITLE "7:cjc057_08529"
    INDEX 01 00:56:72
  TRACK 51 AUDIO
    TITLE "0:"
    INDEX 01 00:58:24
  TRACK 52 AUDIO
    TITLE "8:cjc057_08530"
    INDEX 01 00:58:54
  TRACK 53 AUDIO
    TITLE "0:"
    INDEX 01 01:02:18
  TRACK 54 AUDIO
    TITLE "7:cjc057_08531"
    INDEX 01 01:03:22
  TRACK 55 AUDIO
    TITLE "0:"
    INDEX 01 01:04:52
  TRACK 56 AUDIO
    TITLE "8:cjc057_08532"
    INDEX 01 01:05:07
  TRACK 57 AUDIO
    TITLE "0:"
    INDEX 01 01:08:64
  TRACK 58 AUDIO
    TITLE "7:cjc057_08533"
    INDEX 01 01:09:65
  TRACK 59 AUDIO
    TITLE "0:"
    INDEX 01 01:11:15
  TRACK 60 AUDIO
    TITLE "8:cjc057_08534"
    INDEX 01 01:11:45
  TRACK 61 AUDIO
    TITLE "0:"
    INDEX 01 01:14:47
  TRACK 62 AUDIO
    TITLE "7:cjc057_08535"
    INDEX 01 01:15:50
  TRACK 63 AUDIO
    TITLE "0:"
    INDEX 01 01:16:61
  TRACK 64 AUDIO
    TITLE "8:cjc057_08536"
    INDEX 01 01:17:14
  TRACK 65 AUDIO
    TITLE "0:"
    INDEX 01 01:19:11
  TRACK 66 AUDIO
    TITLE "7:cjc057_08537"
    INDEX 01 01:20:14
  TRACK 67 AUDIO
    TITLE "0:"
    INDEX 01 01:21:37
  TRACK 68 AUDIO
    TITLE "8:cjc057_08538"
    INDEX 01 01:21:67
  TRACK 69 AUDIO
    TITLE "0:"
    INDEX 01 01:23:03
  TRACK 70 AUDIO
    TITLE "7:cjc057_08539"
    INDEX 01 01:24:08
  TRACK 71 AUDIO
    TITLE "0:"
    INDEX 01 01:25:25
  TRACK 72 AUDIO
    TITLE "8:cjc057_08540"
    INDEX 01 01:25:55
  TRACK 73 AUDIO
    TITLE "0:"
    INDEX 01 01:26:72
  TRACK 74 AUDIO
    TITLE "7:cjc057_08541"
    INDEX 01 01:28:02
  TRACK 75 AUDIO
    TITLE "0:"
    INDEX 01 01:29:17
  TRACK 76 AUDIO
    TITLE "8:cjc057_08542"
    INDEX 01 01:29:46
  TRACK 77 AUDIO
    TITLE "0:"
    INDEX 01 01:31:47
  TRACK 78 AUDIO
    TITLE "7:cjc057_08543"
    INDEX 01 01:32:53
  TRACK 79 AUDIO
    TITLE "0:"
    INDEX 01 01:33:64
  TRACK 80 AUDIO
    TITLE "8:cjc057_08544"
    INDEX 01 01:34:16
  TRACK 81 AUDIO
    TITLE "0:"
    INDEX 01 01:35:35
  TRACK 82 AUDIO
    TITLE "7:cjc057_08545"
    INDEX 01 01:36:41
  TRACK 83 AUDIO
    TITLE "0:"
    INDEX 01 01:37:64
  TRACK 84 AUDIO
    TITLE "8:cjc057_08546"
    INDEX 01 01:38:16
  TRACK 85 AUDIO
    TITLE "0:"
    INDEX 01 01:41:46
  TRACK 86 AUDIO
    TITLE "7:cjc057_08547"
    INDEX 01 01:42:51
  TRACK 87 AUDIO
    TITLE "0:"
    INDEX 01 01:44:01
  TRACK 88 AUDIO
    TITLE "8:cjc057_08548"
    INDEX 01 01:44:30
  TRACK 89 AUDIO
    TITLE "0:"
    INDEX 01 01:45:28
  TRACK 90 AUDIO
    TITLE "7:cjc057_08549"
    INDEX 01 01:46:31
  TRACK 91 AUDIO
    TITLE "0:"
    INDEX 01 01:47:70
  TRACK 92 AUDIO
    TITLE "8:cjc057_08550"
    INDEX 01 01:48:22
  TRACK 93 AUDIO
    TITLE "0:"
    INDEX 01 01:51:09
  TRACK 94 AUDIO
    TITLE "7:cjc057_08551"
    INDEX 01 01:52:14
  TRACK 95 AUDIO
    TITLE "0:"
    INDEX 01 01:53:49
  TRACK 96 AUDIO
    TITLE "8:cjc057_08552"
    INDEX 01 01:54:03
  TRACK 97 AUDIO
    TITLE "0:"
    INDEX 01 01:56:02
  TRACK 98 AUDIO
    TITLE "7:cjc057_08553"
    INDEX 01 01:57:06
  TRACK 99 AUDIO
    TITLE "0:"
    INDEX 01 01:58:40
  TRACK 100 AUDIO
    TITLE "8:cjc057_08554"
    INDEX 01 01:58:70
  TRACK 101 AUDIO
    TITLE "0:"
    INDEX 01 02:00:24
  TRACK 102 AUDIO
    TITLE "7:cjc057_08555"
    INDEX 01 02:01:29
  TRACK 103 AUDIO
    TITLE "0:"
    INDEX 01 02:02:40
  TRACK 104 AUDIO
    TITLE "8:cjc057_08556"
    INDEX 01 02:02:69
  TRACK 105 AUDIO
    TITLE "0:"
    INDEX 01 02:05:17
  TRACK 106 AUDIO
    TITLE "7:cjc057_08557"
    INDEX 01 02:06:20
  TRACK 107 AUDIO
    TITLE "0:"
    INDEX 01 02:07:43
  TRACK 108 AUDIO
    TITLE "8:cjc057_08558"
    INDEX 01 02:07:73
  TRACK 109 AUDIO
    TITLE "0:"
    INDEX 01 02:12:35
  TRACK 110 AUDIO
    TITLE "7:cjc057_08559"
    INDEX 01 02:13:38
  TRACK 111 AUDIO
    TITLE "0:"
    INDEX 01 02:14:47
  TRACK 112 AUDIO
    TITLE "8:cjc057_08560"
    INDEX 01 02:15:02
  TRACK 113 AUDIO
    TITLE "0:"
    INDEX 01 02:18:25
